<svg width="22" height="25" viewBox="0 0 22 25" fill="none" xmlns="http://www.w3.org/2000/svg">
<path d="M21.0968 8.44905C21.0968 6.99346 19.916 5.81348 18.4594 5.81348C17.0027 5.81348 15.8219 6.99346 15.8219 8.44905V18.9884C15.8219 20.444 17.0027 21.624 18.4594 21.624C19.916 21.624 21.0968 20.444 21.0968 18.9884V8.44905Z" fill="#393E46"/>
<path d="M13.1844 11.0848C13.1844 9.6292 12.0035 8.44922 10.5469 8.44922C9.09026 8.44922 7.90942 9.6292 7.90942 11.0848V16.353C7.90942 17.8086 9.09026 18.9886 10.5469 18.9886C12.0035 18.9886 13.1844 17.8086 13.1844 16.353V11.0848Z" fill="#222831"/>
<path d="M5.27493 3.17805C5.27493 1.72246 4.09409 0.54248 2.63746 0.54248C1.18083 0.54248 0 1.72246 0 3.17805V21.6212C0 23.0768 1.18083 24.2568 2.63746 24.2568C4.09409 24.2568 5.27493 23.0768 5.27493 21.6212V3.17805Z" fill="#2185D5"/>
</svg>
